<?xml version="1.0" standalone="no"?>
<!DOCTYPE svg PUBLIC "-//W3C//DTD SVG 20010904//EN"
 "http://www.w3.org/TR/2001/REC-SVG-20010904/DTD/svg10.dtd">
<svg version="1.0" xmlns="http://www.w3.org/2000/svg"
 width="327.000000pt" height="326.000000pt" viewBox="0 0 327.000000 326.000000"
 preserveAspectRatio="xMidYMid meet">

<g transform="translate(0.000000,326.000000) scale(0.100000,-0.100000)"
fill="#000000" stroke="none">
<path d="M665 3040 c-192 -39 -346 -177 -411 -370 -18 -52 -19 -102 -19 -975
l0 -920 25 -65 c69 -176 201 -295 375 -340 75 -19 111 -20 944 -20 950 0 931
-1 1056 61 119 58 212 163 265 299 l25 65 0 920 c0 873 -1 923 -19 975 -56
166 -170 285 -336 350 l-65 25 -900 2 c-495 0 -918 -3 -940 -7z m1348 -383
c61 -40 62 -45 62 -347 0 -249 -2 -278 -18 -302 -39 -57 -48 -58 -491 -58
-450 0 -459 1 -496 62 -19 31 -20 50 -20 301 0 304 1 311 75 347 38 20 56 20
450 18 373 -3 413 -5 438 -21z m-1303 -814 c1 -450 5 -837 9 -861 10 -53 60
-108 111 -122 19 -5 137 -10 263 -10 l227 0 0 -111 0 -110 -267 3 c-253 3
-271 5 -326 26 -76 31 -168 116 -204 190 l-28 57 -3 878 -2 877 110 0 110 0 0
-817z m1970 -38 c0 -851 0 -855 -22 -921 -25 -75 -90 -156 -161 -197 -87 -51
-130 -57 -409 -57 l-258 0 0 110 0 110 236 0 c264 0 296 5 346 57 l33 34 3
847 c1 466 4 853 7 860 3 8 36 12 115 12 l110 0 0 -855z m-670 -170 l0 -115
-445 0 -445 0 0 115 0 115 445 0 445 0 0 -115z m0 -425 l0 -110 -450 0 -450 0
0 110 0 110 450 0 450 0 0 -110z"/>
<path d="M1230 2315 l0 -185 335 0 335 0 0 185 0 185 -335 0 -335 0 0 -185z"/>
</g>
</svg>
